#!OML:ASF H:\Male1\Project 1\Capture day 1\Session 1\Male1.ASF
:FULLY-SPECIFIED
:DEGREES
412
root 10.8635 15.3606 -9.54363 -183.534 51.0733 -182.735
lowerback 3.60137 0.73997 0.787536
upperback 4.51413 1.17593 -0.781729
thorax 2.65248 0.69395 -1.25515
lowerneck -10.2149 -5.61711 -3.89061
upperneck 18.9198 -8.35726 8.90481
head 8.08228 -3.22885 2.76836
rclavicle 1.55922e-014 -3.67752e-015
rhumerus -35.0427 1.50283 -89.4012
rradius 37.2572
rwrist -20.5375
rhand -16.1455 -1.1486
rfingers 7.12502
rthumb 10.0598 -30.8882
lclavicle 1.55922e-014 -3.67752e-015
lhumerus -41.371 7.48647 78.8906
lradius 23.8296
lwrist -10.2286
lhand -14.4811 14.2159
lfingers 7.12502
lthumb 11.6652 43.8712
rfemur 6.98341 12.9157 34.9432
rtibia 15.6097
rfoot -21.2706 -15.7997
rtoes -11.2562
lfemur -27.6193 -15.8512 -17.0668
ltibia 46.5074
lfoot -11.591 17.5409
ltoes -15.4447
413
root 11.052 15.3736 -9.69106 -183.254 52.264 -182.627
lowerback 3.61162 0.841652 0.90449
upperback 4.30567 1.29988 -0.822978
thorax 2.43824 0.751845 -1.36723
lowerneck -9.77824 -5.53871 -3.72336
upperneck 18.8545 -8.25403 8.83107
head 7.96298 -3.18641 2.73767
rclavicle 6.24929e-015 3.8763e-015
rhumerus -35.2852 1.44792 -89.5763
rradius 37.1343
rwrist -19.972
rhand -16.461 -0.767848
rfingers 7.12502
rthumb 9.7554 -30.5219
lclavicle 6.24929e-015 3.8763e-015
lhumerus -42.2211 7.16361 78.9745
lradius 23.9216
lwrist -9.26363
lhand -14.9277 14.1692
lfingers 7.12502
lthumb 11.2345 43.8484
rfemur 9.51732 12.6679 35.0976
rtibia 12.3675
rfoot -19.627 -15.6097
rtoes -14.6513
lfemur -28.2789 -16.3665 -16.569
ltibia 42.2207
lfoot -11.8035 18.0703
ltoes -16.7271
414
root 11.2483 15.3797 -9.8335 -182.583 53.3403 -182.059
lowerback 3.27241 0.847547 1.12503
upperback 4.35756 1.30277 -0.702597
thorax 2.68423 0.757632 -1.35997
lowerneck -9.76544 -5.44766 -3.71538
upperneck 18.7093 -8.13139 8.83815
head 7.9038 -3.13734 2.75069
rclavicle 3.81045e-014 -8.84592e-015
rhumerus -34.9656 1.73522 -89.6358
rradius 36.9087
rwrist -20.0656
rhand -16.306 -0.656327
rfingers 7.12502
rthumb 9.90499 -30.4033
lclavicle 3.81045e-014 -8.84592e-015
lhumerus -42.5409 7.41201 78.9623
lradius 23.8867
lwrist -8.62723
lhand -15.3552 14.026
lfingers 7.12502
lthumb 10.8222 43.7272
rfemur 13.0348 12.2033 35.5042
rtibia 7.22019
rfoot -17.5575 -14.8901
rtoes -13.3814
lfemur -28.9696 -16.7539 -15.8196
ltibia 38.3498
lfoot -12.4864 18.6483
ltoes -15.3539
415
root 11.4426 15.3788 -9.97591 -181.489 54.3891 -180.845
lowerback 3.11896 0.809911 1.6765
upperback 4.40611 1.2499 -0.44449
thorax 2.82546 0.743577 -1.39969
lowerneck -9.88826 -5.37439 -3.73714
upperneck 18.6627 -8.02407 8.78206
head 7.90144 -3.09728 2.7434
rclavicle 3.2464e-014 2.08724e-015
rhumerus -34.7523 2.19808 -89.6381
rradius 36.9617
rwrist -20.5072
rhand -15.9968 -1.29475
rfingers 7.12502
rthumb 10.2033 -31.0273
lclavicle 3.2464e-014 2.08724e-015
lhumerus -42.7886 8.02138 78.7859
lradius 23.7106
lwrist -8.48151
lhand -15.6101 13.4467
lfingers 7.12502
lthumb 10.5763 43.1606
rfemur 17.7002 11.6817 36.1734
rtibia -1.11319e-014
rfoot -14.3906 -14.1658
rtoes -13.8536
lfemur -29.5441 -17.0884 -14.7915
ltibia 34.9449
lfoot -13.7408 19.1395
ltoes -13.6399
416
root 11.6394 15.3766 -10.1185 -180.919 55.4067 -180.256
lowerback 2.78716 0.713437 1.70927
upperback 4.59627 1.11524 -0.253264
thorax 3.20058 0.680334 -1.21304
lowerneck -10.2193 -5.30218 -3.66887
upperneck 18.6641 -7.91747 8.60044
head 7.94393 -3.05847 2.67484
rclavicle -5.45415e-014 1.49089e-015
rhumerus -34.3405 2.5852 -89.5718
rradius 36.8621
rwrist -20.6206
rhand -15.5365 -1.23475
rfingers 7.12502
rthumb 10.6472 -30.945
lclavicle -5.45415e-014 1.49089e-015
lhumerus -42.8278 8.64356 78.6826
lradius 23.7048
lwrist -8.34054
lhand -15.5903 13.097
lfingers 7.12502
lthumb 10.5954 42.8099
rfemur 18.5591 11.1649 36.3774
rtibia 3.18055e-014
rfoot -14.385 -13.0391
rtoes -13.3018
lfemur -30.0839 -17.6083 -14.2153
ltibia 32.1752
lfoot -15.4278 19.5089
ltoes -10.8106
